<svg width="118" height="62" viewBox="0 0 118 62" fill="none" xmlns="http://www.w3.org/2000/svg">
<path d="M68.798 9.47448L48.8802 14.8073L30.3537 4.1159C29.4102 3.5723 29.6922 2.15711 30.7554 1.99126L42.4603 0.24438C47.4393 -0.487173 52.538 0.432336 56.9513 2.88682L68.798 9.47448ZM53.8132 40.0836L57.423 33.8295L28.019 41.6886C34.4132 42.8219 42.744 42.3962 53.8132 40.0836ZM111.68 19.2924C111.656 19.2924 111.656 19.2924 111.656 19.2924L85.3897 26.326L81.4021 32.9819L107.196 26.0662C114.394 24.1313 117.628 20.4975 117.934 17.6174L111.68 19.2924ZM14.1785 34.3326C12.5053 38.8361 10.8303 43.3415 9.15709 47.8451C8.83277 48.7167 9.62882 49.5901 10.5262 49.3487L13.7731 48.479C15.5328 48.0073 17.0328 46.8574 17.9431 45.2782L24.7261 33.5273C25.2365 32.6446 24.4239 31.5851 23.438 31.8486C21.9583 32.2448 20.4768 32.6428 18.9971 33.039C17.3903 33.472 15.7853 33.9014 14.1785 34.3326ZM117.272 14.8552L110.924 16.5541L87.4665 22.8322L83.5489 23.8936C78.7118 31.9407 73.8968 39.9897 69.0579 48.0607C66.4615 52.38 62.5199 55.73 57.8247 57.5948L46.8275 61.9141C45.8121 62.3158 44.8687 61.2305 45.4123 60.2852C51.3587 49.9716 57.3309 39.6359 63.2773 29.3222L59.4076 30.3615L24.3852 39.7777L27.1695 34.9406C27.9011 33.7134 27.9011 32.2263 27.1935 30.9751C26.4619 29.7479 25.1647 28.9684 23.7476 28.9684C23.3938 28.9684 23.04 29.0164 22.7102 29.1103L12.2086 31.9186C6.51833 24.909 2.31881 19.5762 0.240243 16.9319C-0.255444 16.2943 0.0522871 15.3509 0.829908 15.139C3.00061 14.5732 6.77631 13.5579 9.04284 12.9443C10.1761 12.6366 11.3794 12.9443 12.2528 13.7459L23.8176 24.4593L91.596 6.2866C97.4484 4.70556 101.956 6.59249 105.072 8.33938L96.6229 10.6059C95.8913 10.7939 95.4196 11.5973 95.6315 12.3528C95.8194 13.1083 96.6229 13.5321 97.3544 13.3442L108.588 10.324C111.68 10.7257 115.667 12.2828 117.272 14.8552ZM44.7747 25.9704C44.5868 25.2149 43.8073 24.7671 43.0518 24.955C42.2963 25.1669 41.8485 25.9464 42.0364 26.7019C42.2484 27.4574 43.0278 27.9052 43.7833 27.6933C44.5388 27.5053 44.9866 26.7259 44.7747 25.9704ZM53.0577 23.7517C52.8697 22.9962 52.0902 22.5485 51.3347 22.7364C50.5792 22.9483 50.1314 23.7278 50.3194 24.4833C50.5313 25.2388 51.3108 25.6866 52.0663 25.4747C52.8218 25.2867 53.2696 24.5073 53.0577 23.7517ZM61.3406 21.535C61.1526 20.7795 60.3732 20.3317 59.6177 20.5196C58.8622 20.7316 58.4144 21.511 58.6024 22.2665C58.8143 23.022 59.5937 23.4698 60.3492 23.2579C61.1047 23.0681 61.5544 22.2886 61.3406 21.535ZM69.6254 19.3164C69.4375 18.5609 68.658 18.1131 67.9025 18.301C67.147 18.5129 66.6992 19.2924 66.8871 20.0479C67.0991 20.8034 67.8785 21.2512 68.634 21.0393C69.3895 20.8495 69.8373 20.07 69.6254 19.3164ZM77.9084 17.0977C77.7204 16.3422 76.9409 15.8945 76.1854 16.0824C75.4299 16.2943 74.9821 17.0738 75.1941 17.8293C75.382 18.5848 76.1615 19.0326 76.917 18.8207C77.6725 18.6309 78.1203 17.8533 77.9084 17.0977ZM86.1913 14.8791C86.0033 14.1236 85.2239 13.6758 84.4684 13.8638C83.7129 14.0757 83.2651 14.8552 83.477 15.6107C83.665 16.3662 84.4444 16.814 85.1999 16.6021C85.9554 16.3902 86.4051 15.6346 86.1913 14.8791Z" fill="#151515"/>
</svg>
