<svg width="87" height="87" viewBox="0 0 87 87" fill="none" xmlns="http://www.w3.org/2000/svg">
<g clip-path="url(#clip0_616_437)">
<path d="M63.4375 39.875C50.4455 39.875 39.875 50.4455 39.875 63.4375C39.875 76.4295 50.4455 87 63.4375 87C76.4295 87 87 76.4295 87 63.4375C87 50.4455 76.4295 39.875 63.4375 39.875ZM73.6491 58.8736L61.8679 72.4674C61.3712 73.0365 60.6644 73.3773 59.9104 73.4026C59.8778 73.4026 59.8451 73.4026 59.8125 73.4026C59.0911 73.4026 58.3988 73.1162 57.8913 72.6051L51.5475 66.2614C50.4854 65.1992 50.4854 63.4774 51.5475 62.4153C52.6096 61.3531 54.3315 61.3531 55.3936 62.4153L59.6747 66.6928L69.542 55.3066C70.5244 54.1756 72.239 54.0487 73.3773 55.0311C74.5083 56.0244 74.6315 57.739 73.6491 58.8736Z" fill="#E40000"/>
<path d="M48.72 5.76369L15.805 22.3662L2.71875 16.0224L35.0538 0.289941C35.7788 -0.0725586 36.6488 -0.0725586 37.41 0.289941L48.72 5.76369Z" fill="#151515"/>
<path d="M69.7816 16.0225L36.2866 32.3712L23.7441 26.2812L21.9316 25.375L54.8829 8.77246L56.6954 9.67871L69.7816 16.0225Z" fill="#151515"/>
<path d="M33.5675 55.8249C32.9513 58.2536 32.625 60.8274 32.625 63.4374C32.625 66.0474 32.9513 68.5486 33.5675 70.9774V71.4849L1.48625 54.9911C0.58 54.5199 0 53.5774 0 52.5624V20.7349L13.5938 27.3324V38.9324C13.5938 40.4186 14.8263 41.6511 16.3125 41.6511C17.7988 41.6511 19.0313 40.4186 19.0313 38.9324V30.0149L20.8438 30.8849L33.6038 37.0836L33.5675 55.8249Z" fill="#151515"/>
<path d="M72.5363 34.0027C69.6725 33.0965 66.5913 32.6252 63.4375 32.6252C53.505 32.6252 44.66 37.3377 39.0413 44.6602V37.0477L72.5 20.7715C72.5363 23.8165 72.5363 29.7615 72.5363 34.0027Z" fill="#151515"/>
</g>
<defs>
<clipPath id="clip0_616_437">
<rect width="87" height="87" fill="white"/>
</clipPath>
</defs>
</svg>
