<svg width="74" height="74" viewBox="0 0 74 74" fill="none" xmlns="http://www.w3.org/2000/svg">
<g clip-path="url(#clip0_616_84)">
<path d="M42.4051 42.4296C40.4372 44.3975 37.8264 45.4798 35.0421 45.4798C32.2579 45.4798 29.647 44.3975 27.6791 42.4296C25.7112 40.4639 24.6312 37.8508 24.6312 35.0689C24.6312 32.2869 25.7135 29.6738 27.6791 27.7059C29.647 25.7379 32.2579 24.6557 35.0421 24.6557C37.8264 24.6557 40.4372 25.7379 42.4051 27.7059C44.373 29.6715 45.453 32.2869 45.453 35.0689C45.453 37.8508 44.373 40.4639 42.4051 42.4296ZM73.8574 37.1455C73.8574 57.5464 57.2583 74.1455 36.8574 74.1455C16.4565 74.1455 -0.142578 57.5464 -0.142578 37.1455C-0.142578 16.7446 16.4565 0.145508 36.8574 0.145508C57.2583 0.145508 73.8574 16.7423 73.8574 37.1455ZM53.3201 50.0215L47.2012 43.8864C49.0605 41.3358 50.078 38.2833 50.078 35.0666C50.078 31.0498 48.5147 27.2734 45.675 24.4337C42.8352 21.5939 39.0612 20.0284 35.0421 20.0284C31.023 20.0284 27.249 21.5939 24.4092 24.4337C21.5695 27.2734 20.0062 31.0498 20.0062 35.0666C20.0062 39.0834 21.5718 42.8597 24.4092 45.6971C27.249 48.5369 31.023 50.1024 35.0421 50.1024C38.2912 50.1024 41.376 49.0618 43.9429 47.1656L50.0456 53.2844C50.4965 53.7377 51.0886 53.9643 51.6829 53.9643C52.2749 53.9643 52.8645 53.74 53.3155 53.2891C54.2197 52.3918 54.2197 50.9257 53.3201 50.0215Z" fill="#E40000"/>
</g>
<defs>
<clipPath id="clip0_616_84">
<rect width="74" height="74" fill="white"/>
</clipPath>
</defs>
</svg>
