<svg width="106" height="106" viewBox="0 0 106 106" fill="none" xmlns="http://www.w3.org/2000/svg">
<path d="M95.8472 57.0909C100.12 51.94 102.688 45.315 102.688 38.0938C102.688 21.6306 89.3381 8.28125 72.875 8.28125C56.4119 8.28125 43.0625 21.6306 43.0625 38.0938C43.0625 54.5569 56.4119 67.9062 72.875 67.9062C77.9431 67.9062 82.7131 66.6309 86.8869 64.4116L102.688 67.9062L95.8472 57.0909Z" fill="#151515"/>
<path d="M10.1528 86.9034C5.87969 81.7525 3.3125 75.1275 3.3125 67.9062C3.3125 51.4431 16.6619 38.0938 33.125 38.0938C49.5881 38.0938 62.9375 51.4431 62.9375 67.9062C62.9375 84.3694 49.5881 97.7188 33.125 97.7188C28.0569 97.7188 23.2869 96.4434 19.1131 94.2241L3.3125 97.7188L10.1528 86.9034Z" fill="#E40000"/>
<path d="M33.125 82.8125C34.4971 82.8125 35.6094 81.7002 35.6094 80.3281C35.6094 78.956 34.4971 77.8438 33.125 77.8438C31.7529 77.8438 30.6406 78.956 30.6406 80.3281C30.6406 81.7002 31.7529 82.8125 33.125 82.8125Z" fill="#F2F2F2"/>
<path d="M33.125 54.6562C35.8578 54.6562 38.0938 56.8922 38.0938 59.625C38.0938 62.3578 35.8578 64.5938 33.125 64.5938C32.2141 64.5938 31.4688 65.3391 31.4688 66.25V74.5312H34.7812V67.7406C38.5575 66.9788 41.4062 63.6331 41.4062 59.625C41.4062 55.0538 37.6962 51.3438 33.125 51.3438C28.5538 51.3438 24.8438 55.0538 24.8438 59.625H28.1562C28.1562 56.8922 30.3922 54.6562 33.125 54.6562Z" fill="#F2F2F2"/>
<path d="M59.625 26.5H86.125V29.8125H59.625V26.5Z" fill="white"/>
<path d="M59.625 36.4375H86.125V39.75H59.625V36.4375Z" fill="white"/>
<path d="M66.25 46.375H86.125V49.6875H66.25V46.375Z" fill="white"/>
</svg>
