<svg width="127" height="75" viewBox="0 0 127 75" fill="none" xmlns="http://www.w3.org/2000/svg">
<g clip-path="url(#clip0_469_28819)">
<path d="M84.1243 65.0516L95.8875 42.5965C96.9248 40.631 97.6905 38.7558 98.193 36.9494C98.7028 35.1172 98.954 33.0097 98.9114 30.4679C98.9114 26.3605 99.2219 22.8725 97.4699 19.4618C96.2361 17.0619 93.8203 14.5588 90.9203 12.3438C89.5594 11.3073 88.0922 10.331 86.5825 9.45786C85.5236 8.84714 84.5028 8.37404 83.5162 8.02566C80.3691 6.91172 77.6091 7.09236 75.3083 8.29231C72.1357 9.94817 70.7578 13.69 70.7578 19.9392L81.8364 23.7756C82.0022 21.651 82.4233 20.2445 83.0952 19.5564C83.9713 18.6532 85.111 18.5285 86.4975 19.1522C87.382 19.5908 88.0795 20.1328 88.5983 20.7822C89.1129 21.4231 89.5041 22.0811 89.7891 22.752C90.0698 23.423 90.2483 24.1025 90.3334 24.795C90.4143 25.4874 90.4568 26.0981 90.4568 26.6358C90.4568 28.3002 90.3589 29.8486 90.1633 31.2851C89.9677 32.7302 89.4786 34.0806 88.6834 35.3581C86.1104 39.689 83.4269 44.2179 80.6329 48.9532C79.1656 51.4392 77.541 53.994 75.8612 56.6132L70.7663 65.0602V74.5051H90.7247H98.8817V66.2387L84.1243 65.0516Z" fill="#F4F4F4"/>
<path d="M105.272 20.7181L98.8721 23.3761V16.9806L90.9189 12.3398C93.8236 14.5549 96.2348 17.0537 97.4686 19.4579C99.2207 22.8642 98.9101 26.3566 98.9101 30.464C98.9565 33.0058 98.7062 35.1133 98.1917 36.9455C97.6892 38.7518 96.9235 40.627 95.8862 42.5926L84.123 65.0477L98.8721 66.2348V74.5055H105.272H105.285L105.272 20.7181Z" fill="#141414"/>
<path d="M124.96 35.0021C126.095 37.088 126.69 39.0019 126.903 41.4922V33.329L118.266 28.2969C121.511 30.3613 123.582 32.4645 124.96 35.0021Z" fill="#141414"/>
<path d="M123.37 51.2159C123.234 51.2375 122.949 51.2503 122.949 51.2503L123.37 51.5256C125.088 52.6567 125.998 54.2266 126.593 56.0502C126.743 56.5103 126.841 56.9963 126.9 57.5039V46.373C126.781 47.414 126.526 48.244 126.088 49.0483C125.564 50.1364 124.548 50.8289 123.37 51.2159Z" fill="#141414"/>
<path d="M116.547 74.5052H126.902V65.7441C126.766 68.2516 126.316 69.8774 124.819 71.6321C123.096 73.6665 120.706 74.5009 116.547 74.5052Z" fill="#141414"/>
<path d="M120.689 55.7195C119.944 54.5024 118.868 53.6293 116.878 53.096L113.99 52.3262L113.995 67.4439L117.019 67.6976C118.176 67.7966 119.073 67.6632 119.736 67.3063C120.383 66.9579 120.791 66.459 121.139 65.8138C121.48 65.173 121.658 64.3988 121.76 63.4827C121.858 62.5709 121.824 61.6075 121.824 60.5968C121.816 58.5366 121.416 56.9152 120.689 55.7195Z" fill="#141414"/>
<path d="M120.476 46.0808C121.271 45.3969 121.582 44.0421 121.577 42.1799C121.577 40.1498 121.275 38.7649 120.501 37.5004C119.707 36.2058 118.358 35.0747 116.389 34.0855L113.982 32.877L113.986 45.4658L116.461 46.3303C118.341 46.9926 119.659 46.7819 120.476 46.0808Z" fill="#141414"/>
<path d="M126.901 57.5046C126.841 56.9971 126.743 56.5069 126.595 56.0509C126 54.2273 125.089 52.6575 123.371 51.5264L122.95 51.251C122.95 51.251 123.235 51.2339 123.371 51.2166C124.549 50.8338 125.566 50.1371 126.093 49.0533C126.531 48.2534 126.786 47.4189 126.905 46.3781C126.96 45.8964 126.991 45.3717 126.991 44.7782C127.016 43.5567 126.99 42.4815 126.905 41.4923C126.692 39.002 126.092 37.0924 124.961 35.0022C123.584 32.4647 121.513 30.3615 118.267 28.2927C117.885 28.0476 117.49 27.8067 117.072 27.5615L105.275 20.6758V20.7188L105.288 74.5062H116.545C120.704 74.5019 123.094 73.6675 124.821 71.6374C126.314 69.8827 126.764 68.2526 126.905 65.7495C126.96 64.7302 126.965 63.5689 126.965 62.1841C126.96 60.6185 127.08 58.9799 126.901 57.5046ZM113.981 32.8818L116.387 34.0904C118.357 35.0753 119.705 36.2064 120.501 37.5053C121.278 38.7741 121.576 40.1547 121.576 42.1848C121.576 44.047 121.27 45.4018 120.475 46.0857C119.663 46.7868 118.34 46.9932 116.464 46.3394L113.989 45.4749L113.981 32.8818ZM121.755 63.4872C121.657 64.4033 121.479 65.1775 121.134 65.8183C120.79 66.4635 120.377 66.9624 119.73 67.3108C119.071 67.6677 118.174 67.7967 117.013 67.7021L113.994 67.4441L113.989 52.3263L116.877 53.0961C118.867 53.6252 119.943 54.4983 120.688 55.7197C121.415 56.9154 121.819 58.5368 121.819 60.6013C121.819 61.612 121.853 62.5712 121.755 63.4872Z" fill="#F4F4F4"/>
<path d="M75.8556 56.6144C77.5354 53.9909 79.16 51.4405 80.6271 48.9545C83.4255 44.2192 86.1047 39.6903 88.6776 35.3594C89.4729 34.0862 89.962 32.7314 90.1576 31.2864C90.3533 29.8455 90.4511 28.3015 90.4511 26.637C90.4511 26.1037 90.4085 25.4887 90.3277 24.7963C90.2427 24.1038 90.0641 23.4199 89.7834 22.7533C89.5027 22.0824 89.1072 21.4244 88.5926 20.7835C88.0738 20.1341 87.3763 19.5921 86.4918 19.1534C85.1053 18.5298 83.9698 18.6588 83.0895 19.5577C82.4218 20.2458 82.0008 21.6523 81.8307 23.7769L70.7522 19.9405C70.7522 13.6913 72.1301 9.94945 75.3027 8.29359C77.5992 7.09363 80.3592 6.913 83.5105 8.02693L70.7522 0.582031V19.8588C70.7522 16.8611 70.48 14.302 69.9441 12.1988C69.4083 10.1172 68.545 8.57744 67.3541 7.57963C66.1846 6.60332 64.6664 6.24635 62.8164 6.4829C61.026 6.71516 58.8783 7.57533 56.4203 9.02474C54.2131 10.3279 52.3758 11.8118 50.8874 13.4762C49.4371 15.0976 48.2932 16.8438 47.4384 18.7147C46.5963 20.5598 45.9882 22.5254 45.5969 24.6285C45.4949 25.179 45.4098 25.7339 45.3333 26.2973C45.0568 23.6178 44.2956 21.6652 43.058 20.4609C41.527 18.9728 39.222 19.1578 36.2663 20.9039C34.7395 21.8028 33.485 22.9124 32.4856 24.2285C31.5032 25.5145 30.7164 26.9424 30.1126 28.5079C29.5129 30.0563 29.0918 31.6906 28.8325 33.4325C28.7219 34.168 28.6453 34.912 28.5815 35.6604C28.2923 32.9981 27.6884 31.153 26.7826 30.1423C25.5025 28.7144 23.7929 28.6499 21.7132 29.867L16.4185 32.9594V68.5624L12.8505 35.0454L9.64814 36.9163C9.06122 43.4967 8.48283 49.918 7.91721 56.193C7.62377 59.4316 7.33458 62.6443 7.04964 65.84L6.94758 66.9711L4.78715 67.242V67.2378C4.62555 68.9151 4.21728 69.784 3.57936 69.8355C3.33271 69.857 3.12858 69.7581 2.97548 69.5473C2.82238 69.3366 2.69904 69.0657 2.61399 68.7388C2.52893 68.4119 2.46939 68.0593 2.44387 67.6765C2.41836 67.2937 2.40559 66.9453 2.40559 66.6227V49.6814C2.40559 49.2642 2.42262 48.8169 2.45664 48.3395C2.49066 47.8578 2.55019 47.3976 2.63524 46.9546C2.7203 46.5116 2.84789 46.1203 3.0095 45.7804C3.1711 45.4407 3.38374 45.1181 3.64741 44.9848C4.19176 44.7095 4.55325 45.0579 4.74462 45.6988C4.86795 46.1073 4.91049 46.645 4.9275 47.2686L7.51319 46.1934C7.51319 44.9804 7.43664 43.9009 7.2878 42.9633C7.13895 42.03 6.86676 41.3204 6.55206 40.7655C6.24161 40.215 5.70151 39.9183 5.2422 39.785C4.78716 39.6516 4.25556 39.7678 3.65167 40.1248C3.001 40.5075 2.46513 41.0624 2.0356 41.7935C1.61032 42.5117 1.2701 43.3461 1.01494 44.2966C0.759767 45.2429 0.581154 46.2707 0.474834 47.389C0.368515 48.5029 0.274953 49.6599 0.274953 50.8599L0.232422 66.8765C0.232422 69.4614 0.360001 71.4097 0.878842 72.7344C1.40619 74.0849 2.24824 74.4719 3.6304 74.4719C4.91048 74.4719 5.68451 73.9946 6.30966 72.4204C6.38196 72.2398 6.44575 72.0505 6.50954 71.857C6.43299 72.7258 6.35218 73.5989 6.27563 74.4676L8.89535 74.4547C8.99316 73.173 9.09949 71.8784 9.20581 70.571C9.31636 69.2593 9.42695 67.9474 9.54598 66.6443L12.961 66.2142L13.7265 74.4289L17.0394 74.4118L19.9313 74.3988V56.4038L21.7132 55.9694L25.073 74.3773L29.6022 74.3558L25.3494 53.5394C26.5955 52.0297 27.4886 50.1459 28.0032 47.8922C28.186 47.0923 28.3348 46.2363 28.454 45.3374V62.881C28.454 66.7776 29.0366 69.6979 30.2273 71.6893C31.4522 73.7365 32.9704 74.4806 36.2238 74.4806C39.3878 74.4806 41.0379 73.659 42.8071 71.358C44.0787 69.6979 44.925 67.4915 45.3205 64.769C45.6905 67.3195 46.4134 69.3883 47.5106 70.9796C49.114 73.315 51.7167 74.3601 55.4761 74.4934V74.5107H70.7607V65.0658L75.8556 56.6144ZM9.96703 61.1218C10.1882 58.395 10.3966 55.6941 10.5879 53.0318C10.7794 50.3523 10.9664 47.6514 11.1408 44.9332L11.2726 44.873L12.4975 60.5928L9.96703 61.1218ZM23.7375 47.1051C23.2357 48.3481 22.4788 49.1309 21.4708 49.4621L19.9399 49.9695V37.2216L21.4028 36.4904C22.483 35.9486 23.274 36.1334 23.7589 37.0496C24.2522 37.9829 24.4988 39.5097 24.4988 41.6344C24.4988 44.0171 24.2437 45.845 23.7375 47.1051ZM36.0749 45.3203V52.4555L39.3623 51.6512V62.4294C39.3623 63.7927 39.0519 64.9024 38.4395 65.7453C37.8356 66.5797 37.0445 67.0313 36.0749 67.113C35.1266 67.1905 34.4759 66.8722 34.1144 66.1625C33.7529 65.4572 33.5275 64.6658 33.4339 63.7927C33.3404 63.311 33.2936 62.8035 33.2936 62.2616V36.2195C33.2936 35.5786 33.3319 34.8862 33.4084 34.1379C33.485 33.3895 33.6254 32.654 33.8295 31.9401C34.0336 31.2218 34.327 30.5681 34.7098 29.9789C35.0968 29.3853 35.5986 28.9294 36.2238 28.6154C37.2955 28.0736 38.0908 28.2929 38.5925 29.2907C39.0307 30.1595 39.2773 31.3938 39.3411 32.9852V32.9809L43.5684 31.6304L45.0228 31.1659V42.4214L36.0749 45.3203ZM52.9968 63.7498C52.3631 62.5326 52.0484 61.1262 52.0484 59.5176V28.2886C52.0484 27.5144 52.1037 26.6414 52.2228 25.665C52.3376 24.6887 52.5502 23.7554 52.8564 22.8565C53.1626 21.9576 53.6007 21.1104 54.1791 20.3104C54.7617 19.5018 55.5229 18.8566 56.467 18.3793C58.2532 17.4761 59.4992 17.5793 60.167 18.7147C60.8431 19.8674 61.1834 21.3856 61.1834 23.2565V57.5306C61.1834 59.595 60.8007 61.4014 60.0479 62.9239C59.4015 64.2228 58.3978 65.0099 57.0539 65.2895L55.6462 65.3927C54.4129 65.3324 53.5327 64.7819 52.9968 63.7498Z" fill="#141414"/>
</g>
<defs>
<clipPath id="clip0_469_28819">
<rect width="127" height="75" fill="white"/>
</clipPath>
</defs>
</svg>
