<svg width="58" height="58" viewBox="0 0 58 58" fill="none" xmlns="http://www.w3.org/2000/svg">
<circle cx="29" cy="29" r="29" fill="#EC3E3E"/>
<path d="M28.9514 45C28.0379 44.9655 28.0377 43.6585 28.9514 43.625C48.3927 42.8883 48.3815 15.1062 28.9513 14.375C28.5705 14.375 28.2617 14.0672 28.2617 13.6875C28.2617 13.3077 28.5705 13 28.9514 13C33.239 13 37.27 14.6642 40.3018 17.6863C50.3742 27.6913 43.1683 45.0257 28.9514 45Z" fill="white"/>
<path d="M36.6325 37.3433C36.456 37.3433 36.2795 37.2762 36.1448 37.1419L28.4637 29.4857C28.3345 29.3567 28.2617 29.1818 28.2617 28.9995V19.4292C28.2956 18.518 29.6076 18.5187 29.6412 19.4292V28.7148L37.1202 36.1697C37.3896 36.4382 37.3896 36.8735 37.1202 37.142C36.9855 37.2762 36.809 37.3433 36.6325 37.3433Z" fill="white"/>
<path d="M23.3956 15.408C23.1218 15.408 22.8628 15.2445 22.7549 14.9757C22.6134 14.6232 22.7852 14.2232 23.1388 14.0822C23.155 14.0757 23.5393 13.9228 23.9695 13.7888C24.3832 13.6599 24.8523 13.5277 24.8721 13.5222C25.2386 13.4189 25.6197 13.6315 25.7233 13.9969C25.8268 14.3624 25.6135 14.7422 25.2469 14.8454C25.2423 14.8467 24.7761 14.9781 24.3809 15.1012C24.0038 15.2186 23.6548 15.3573 23.6513 15.3587C23.5675 15.3922 23.4808 15.408 23.3956 15.408Z" fill="white"/>
<path d="M18.731 18.2515C18.5436 18.2515 18.3568 18.1758 18.2207 18.0268C17.9643 17.746 17.9847 17.3113 18.2664 17.0558C18.2792 17.0441 18.5855 16.7666 18.9415 16.491C19.2837 16.2258 19.6766 15.9383 19.6931 15.9262C20.0002 15.7016 20.4319 15.7676 20.6572 16.0738C20.8826 16.3799 20.8163 16.8101 20.5092 17.0348C20.5053 17.0376 20.1148 17.3235 19.7879 17.5767C19.476 17.8183 19.1978 18.07 19.1951 18.0726C19.0628 18.1924 18.8967 18.2515 18.731 18.2515Z" fill="white"/>
<path d="M15.3573 22.5443C15.2513 22.5443 15.1436 22.5199 15.0427 22.4682C14.7039 22.2948 14.5703 21.8804 14.7443 21.5426C14.7522 21.5272 14.9416 21.1604 15.178 20.7781C15.4055 20.4102 15.6725 20.0037 15.6837 19.9866C15.8924 19.669 16.3199 19.5802 16.6386 19.7882C16.9572 19.9963 17.0463 20.4224 16.8377 20.7401C16.835 20.7441 16.5697 21.1481 16.3524 21.4994C16.1439 21.8367 15.9731 22.1674 15.9714 22.1707C15.8492 22.408 15.6076 22.5443 15.3573 22.5443Z" fill="white"/>
<path d="M13.7102 27.7404C13.6833 27.7404 13.6562 27.7388 13.6289 27.7356C13.2506 27.6914 12.9799 27.3499 13.0243 26.9729C13.0263 26.9557 13.0749 26.546 13.1619 26.1054C13.2458 25.6814 13.353 25.2075 13.3576 25.1875C13.4415 24.8172 13.8105 24.5849 14.1822 24.6684C14.5538 24.752 14.7869 25.12 14.7031 25.4904C14.702 25.4951 14.5954 25.9662 14.5154 26.3712C14.4391 26.7575 14.3947 27.1294 14.3943 27.1331C14.353 27.4829 14.0551 27.7404 13.7102 27.7404Z" fill="white"/>
<path d="M13.9907 33.1844C13.6807 33.1844 13.3989 32.9746 13.3216 32.661C13.3174 32.6441 13.2189 32.2436 13.1457 31.8003C13.0753 31.3739 13.0092 30.8926 13.0064 30.8724C12.9549 30.4961 13.219 30.1496 13.5965 30.0982C13.9742 30.0469 14.3216 30.3102 14.3732 30.6864C14.3738 30.6912 14.4396 31.1696 14.5068 31.5769C14.571 31.9653 14.6602 32.3292 14.6611 32.3328C14.7519 32.7015 14.5257 33.0738 14.1558 33.1644C14.1006 33.1779 14.0452 33.1844 13.9907 33.1844Z" fill="white"/>
<path d="M16.166 38.1853C15.9458 38.1853 15.7294 38.0803 15.5958 37.8853C15.586 37.871 15.353 37.5301 15.1287 37.1405C14.913 36.7657 14.682 36.338 14.6723 36.32C14.4918 35.9856 14.6175 35.5687 14.953 35.3888C15.2886 35.2089 15.7067 35.3343 15.8871 35.6686C15.8894 35.6729 16.119 36.0981 16.3251 36.4561C16.5218 36.7976 16.7331 37.1073 16.7352 37.1103C17.0516 37.5521 16.705 38.1969 16.166 38.1853Z" fill="white"/>
<path d="M19.9607 42.1098C19.8234 42.1098 19.6848 42.069 19.564 41.9841C19.5498 41.9741 19.2118 41.7361 18.8648 41.4495C18.531 41.1738 18.1644 40.8538 18.1489 40.8403C17.8625 40.59 17.8338 40.1556 18.0848 39.8701C18.3359 39.5846 18.7716 39.5559 19.0581 39.8062C19.0618 39.8094 19.4262 40.1275 19.745 40.3908C20.0491 40.6421 20.3559 40.8583 20.3589 40.8605C20.9087 41.2491 20.6241 42.1114 19.9607 42.1098Z" fill="white"/>
<path d="M24.8952 44.461C24.8374 44.461 24.7786 44.4537 24.72 44.4384C24.7032 44.4341 24.3029 44.3291 23.8772 44.1817C23.4677 44.04 23.0118 43.8682 22.9927 43.8609C22.6364 43.7266 22.4569 43.3297 22.5917 42.9746C22.7265 42.6194 23.1246 42.4406 23.481 42.5749C23.4855 42.5766 23.9386 42.7474 24.3298 42.8828C24.7029 43.012 25.0662 43.1074 25.0699 43.1084C25.849 43.3305 25.6952 44.4464 24.8952 44.461Z" fill="white"/>
</svg>
