<svg width="58" height="58" viewBox="0 0 58 58" fill="none" xmlns="http://www.w3.org/2000/svg">
<circle cx="29" cy="29" r="29" fill="#EC3E3E"/>
<path d="M35.1569 14.018C35.7882 14.3566 36.3597 14.8235 36.8554 15.4056C38.6275 17.4865 38.6275 20.8724 36.8554 22.9533C36.1661 23.7628 35.1538 24.1056 34.2139 23.8481C34.0812 23.8117 33.9177 23.7534 33.7448 23.6603C34.1725 23.5567 34.5799 23.3105 34.9111 22.9215C35.9814 21.6645 35.9814 19.6192 34.9111 18.3622C33.663 16.8966 31.357 17.0163 29.8755 18.6239C29.8697 18.6301 29.8641 18.6365 29.8585 18.6431C28.7407 19.9557 28.0905 21.819 28.0745 23.7553C28.0585 25.7043 28.6883 27.5725 29.8027 28.8811C31.1901 30.5104 33.0347 31.4076 34.9967 31.4076C36.9587 31.4076 38.8033 30.5104 40.1907 28.8812C41.2086 27.6858 42.5574 26.9446 43.9886 26.7939C44.3166 26.7593 44.5587 26.4191 44.5292 26.034C44.4998 25.6487 44.2107 25.3644 43.8821 25.399C42.173 25.5789 40.5625 26.4638 39.3473 27.8909C38.1852 29.2556 36.6401 30.0072 34.9966 30.0072C33.3531 30.0072 31.808 29.2556 30.6459 27.8909C29.7566 26.8466 29.254 25.3442 29.267 23.769C29.2799 22.2012 29.7996 20.6984 30.6933 19.6434C31.7011 18.5586 33.2753 18.422 34.0677 19.3526C34.6731 20.0635 34.6731 21.2203 34.0677 21.9313C33.6299 22.4456 32.9174 22.4454 32.4797 21.9313C32.2837 21.7011 31.9785 21.66 31.7432 21.8318C31.5078 22.0036 31.4043 22.3432 31.4933 22.6514C31.8699 23.9555 32.7628 24.8888 33.9429 25.2121C35.2812 25.5787 36.7202 25.0927 37.6987 23.9437C39.9357 21.3168 39.9357 17.0423 37.6987 14.4154C37.102 13.7147 36.4135 13.1524 35.6524 12.7441C35.3529 12.5835 34.999 12.7383 34.8623 13.0901C34.7255 13.4418 34.8574 13.8572 35.1569 14.018Z" fill="white"/>
<path d="M14.4802 30.721C14.1572 30.7963 13.9473 31.165 14.0116 31.5443C14.068 31.8775 14.317 32.1082 14.5958 32.1082C14.6343 32.1082 14.6735 32.1038 14.7127 32.0946C18.805 31.1397 22.1618 27.6552 23.4732 23.0009L24.1032 20.7645C25.0566 17.3803 27.369 14.7792 30.2886 13.8067C30.6054 13.7012 30.7894 13.314 30.6995 12.9419C30.6097 12.5698 30.2797 12.354 29.9632 12.4593C26.7917 13.5157 24.2551 16.2724 23.1052 19.8804C20.6907 22.123 17.6759 23.3566 14.5965 23.3566C14.2672 23.3566 14.0002 23.6701 14.0002 24.0569C14.0002 24.4436 14.2671 24.7571 14.5965 24.7571C17.3799 24.7571 20.1147 23.8302 22.4661 22.1165L22.3409 22.561C21.1642 26.7375 18.1522 29.8642 14.4802 30.721Z" fill="white"/>
<path d="M25.3879 28.7003C25.3879 28.3135 25.1209 28 24.7916 28C24.4623 28 24.1953 28.3135 24.1953 28.7003C24.1953 32.1497 26.5849 34.9559 29.5223 34.9559C29.8515 34.9559 30.1186 34.6424 30.1186 34.2556C30.1186 33.8689 29.8515 33.5554 29.5223 33.5554C27.2426 33.5554 25.3879 31.3774 25.3879 28.7003Z" fill="white"/>
<path d="M43.5488 30.3772C43.0283 30.8017 42.5352 31.286 42.0834 31.8165C40.2954 33.9163 37.9181 35.0727 35.3893 35.0727C35.0599 35.0727 34.793 35.3863 34.793 35.7729C34.793 36.1597 35.0599 36.4732 35.3893 36.4732H35.3894C38.2365 36.4732 40.9135 35.171 42.9267 32.8069C43.3284 32.335 43.7667 31.9046 44.229 31.5274C44.4995 31.3068 44.5666 30.8705 44.3787 30.5529C44.1908 30.2352 43.8193 30.1564 43.5488 30.3772Z" fill="white"/>
<path d="M44.3558 41.0241C44.123 40.7506 43.7456 40.7506 43.5125 41.0241C41.7229 43.1257 38.8109 43.1258 37.0213 41.0241C35.9291 39.7415 34.477 39.0352 32.9324 39.0352C31.3879 39.0352 29.9357 39.7415 28.8435 41.0241C27.054 43.1257 24.142 43.1258 22.3524 41.0241C21.2602 39.7415 19.8081 39.0352 18.2635 39.0352C16.719 39.0352 15.2668 39.7415 14.1746 41.0241C13.9418 41.2975 13.9418 41.7409 14.1746 42.0145C14.4076 42.2879 14.785 42.2879 15.018 42.0145C16.8077 39.9127 19.7196 39.9129 21.5091 42.0145C23.7638 44.6621 27.4323 44.6621 29.687 42.0145C31.4766 39.9127 34.3886 39.9129 36.1781 42.0145C37.3054 43.3383 38.7862 44.0002 40.267 44.0002C41.7478 44.0002 43.2286 43.3383 44.3559 42.0145C44.5887 41.7409 44.5887 41.2975 44.3558 41.0241Z" fill="white"/>
<path d="M32.7838 13.4005C32.9406 13.4005 33.0945 13.3256 33.2053 13.1953C33.3162 13.0651 33.3801 12.8844 33.3801 12.7003C33.3801 12.5161 33.3163 12.3354 33.2053 12.2052C33.0945 12.0749 32.9406 12 32.7838 12C32.6263 12 32.4731 12.0749 32.3622 12.2052C32.2507 12.3354 32.1875 12.5161 32.1875 12.7003C32.1875 12.8844 32.2507 13.0651 32.3622 13.1953C32.4731 13.3257 32.6264 13.4005 32.7838 13.4005Z" fill="white"/>
</svg>
