<svg width="20" height="20" viewBox="0 0 20 20" fill="none" xmlns="http://www.w3.org/2000/svg">
<g clip-path="url(#clip0_616_47)">
<path d="M18.6919 14.0655C18.6409 14.0251 14.9359 11.3544 13.9189 11.5461C13.4334 11.632 13.1559 11.9631 12.5988 12.6259C12.5092 12.733 12.2939 12.9894 12.1264 13.1718C11.7744 13.0569 11.431 12.9172 11.0989 12.7535C9.38455 11.9189 7.99942 10.5338 7.16481 8.81945C7.00104 8.48736 6.86127 8.14397 6.74657 7.7919C6.92955 7.62386 7.18597 7.40852 7.29551 7.3164C7.95523 6.76248 8.28696 6.4849 8.37285 5.9982C8.54899 4.98994 5.88022 1.25939 5.85221 1.22578C5.73112 1.0528 5.5731 0.908903 5.38958 0.804492C5.20605 0.700082 5.00161 0.637772 4.79105 0.62207C3.70935 0.62207 0.621094 4.62834 0.621094 5.303C0.621094 5.34221 0.67773 9.32794 5.59268 14.3275C10.5873 19.2369 14.5724 19.2935 14.6116 19.2935C15.2869 19.2935 19.2925 16.2053 19.2925 15.1236C19.277 14.9137 19.2151 14.71 19.1112 14.527C19.0073 14.344 18.8641 14.1864 18.6919 14.0655Z" fill="#151515"/>
</g>
<defs>
<clipPath id="clip0_616_47">
<rect width="19.9162" height="19.9162" fill="white"/>
</clipPath>
</defs>
</svg>
