<svg width="92" height="54" viewBox="0 0 92 54" fill="none" xmlns="http://www.w3.org/2000/svg">
<g clip-path="url(#clip0_469_28150)">
<path d="M60.9406 46.8374L69.462 30.6697C70.2134 29.2545 70.7681 27.9044 71.1321 26.6038C71.5014 25.2846 71.6834 23.7672 71.6525 21.9371C71.6525 18.9798 71.8775 16.4684 70.6083 14.0128C69.7145 12.2848 67.9645 10.4826 65.8637 8.88775C64.8778 8.14147 63.815 7.43852 62.7213 6.80989C61.9543 6.37017 61.2148 6.02954 60.5001 5.77871C58.2203 4.97668 56.221 5.10673 54.5542 5.9707C52.256 7.16292 51.2578 9.85705 51.2578 14.3565L59.2832 17.1187C59.4034 15.5889 59.7084 14.5763 60.1951 14.0809C60.8298 13.4306 61.6554 13.3408 62.6598 13.7898C63.3005 14.1056 63.8058 14.4958 64.1817 14.9634C64.5544 15.4249 64.8378 15.8986 65.0442 16.3817C65.2476 16.8648 65.3769 17.3541 65.4386 17.8526C65.4971 18.3512 65.528 18.7909 65.528 19.178C65.528 20.3764 65.457 21.4912 65.3153 22.5255C65.1737 23.566 64.8194 24.5383 64.2432 25.4581C62.3794 28.5763 60.4354 31.8371 58.4114 35.2466C57.3485 37.0365 56.1716 38.8759 54.9547 40.7617L51.264 46.8436V53.6439H65.722H71.631V47.6921L60.9406 46.8374Z" fill="#E40000"/>
<path d="M76.2598 14.9171L71.6236 16.8309V12.2261L65.8622 8.88477C67.9664 10.4796 69.7131 12.2787 70.6069 14.0098C71.8761 16.4623 71.6511 18.9768 71.6511 21.9341C71.6847 23.7643 71.5034 25.2817 71.1307 26.6008C70.7667 27.9014 70.212 29.2515 69.4606 30.6667L60.9392 46.8344L71.6236 47.6891V53.644H76.2598H76.2692L76.2598 14.9171Z" fill="#151515"/>
<path d="M90.521 25.2008C91.3436 26.7027 91.7748 28.0807 91.9292 29.8737V23.9962L85.6719 20.373C88.0229 21.8595 89.5231 23.3738 90.521 25.2008Z" fill="#151515"/>
<path d="M89.3713 36.8755C89.2726 36.891 89.0664 36.9003 89.0664 36.9003L89.3713 37.0985C90.6156 37.9129 91.2751 39.0432 91.7062 40.3562C91.8143 40.6875 91.8855 41.0374 91.9285 41.4029V33.3887C91.8418 34.1381 91.6572 34.7358 91.3402 35.3149C90.9608 36.0983 90.2248 36.5969 89.3713 36.8755Z" fill="#151515"/>
<path d="M84.4258 53.6439H91.9275V47.3359C91.8288 49.1413 91.5024 50.3119 90.4179 51.5753C89.1702 53.04 87.4389 53.6408 84.4258 53.6439Z" fill="#151515"/>
<path d="M87.4287 40.118C86.8894 39.2417 86.1098 38.6131 84.668 38.229L82.5762 37.6748L82.5795 48.5596L84.7701 48.7422C85.6081 48.8135 86.2582 48.7175 86.7383 48.4605C87.2071 48.2097 87.5025 47.8504 87.755 47.3859C88.0015 46.9245 88.1311 46.3671 88.205 45.7075C88.2755 45.051 88.2513 44.3574 88.2513 43.6297C88.2453 42.1463 87.9551 40.9789 87.4287 40.118Z" fill="#151515"/>
<path d="M87.2744 33.1786C87.8506 32.6862 88.0755 31.7108 88.0722 30.37C88.0722 28.9083 87.8533 27.9112 87.2925 27.0008C86.717 26.0687 85.7399 25.2543 84.3136 24.542L82.5703 23.6719L82.573 32.7358L84.366 33.3583C85.7279 33.8351 86.6828 33.6834 87.2744 33.1786Z" fill="#151515"/>
<path d="M91.9272 41.4035C91.8843 41.038 91.8131 40.6851 91.7056 40.3568C91.2745 39.0438 90.6151 37.9135 89.37 37.0991L89.0652 36.9009C89.0652 36.9009 89.272 36.8885 89.37 36.8761C90.2236 36.6005 90.9602 36.0989 91.3423 35.3186C91.6593 34.7426 91.844 34.1418 91.9306 33.3924C91.9702 33.0456 91.9924 32.6678 91.9924 32.2404C92.0105 31.361 91.9917 30.5868 91.9306 29.8746C91.7761 28.0816 91.3417 26.7067 90.5224 25.2017C89.5245 23.3747 88.0243 21.8604 85.6733 20.3709C85.3959 20.1944 85.1098 20.021 84.8076 19.8445L76.2617 14.8867V14.9177L76.2711 53.6446H84.4255C87.4387 53.6415 89.1699 53.0408 90.421 51.5791C91.5022 50.3157 91.8285 49.142 91.9306 47.3398C91.9702 46.6059 91.9736 45.7698 91.9736 44.7727C91.9702 43.6455 92.0568 42.4657 91.9272 41.4035ZM82.5681 23.6751L84.3114 24.5452C85.7384 25.2544 86.7148 26.0688 87.291 27.004C87.8544 27.9175 88.07 28.9115 88.07 30.3732C88.07 31.714 87.8483 32.6894 87.2722 33.1819C86.6839 33.6866 85.7256 33.8353 84.3671 33.3645L82.5741 32.7421L82.5681 23.6751ZM88.1996 45.7109C88.129 46.3705 87.9994 46.928 87.7496 47.3893C87.5005 47.8539 87.2017 48.2131 86.7329 48.4639C86.2555 48.7209 85.6054 48.8138 84.7647 48.7457L82.5775 48.5599L82.5741 37.6751L84.666 38.2294C86.1077 38.6103 86.8874 39.2389 87.4266 40.1184C87.9531 40.9793 88.2459 42.1467 88.2459 43.6331C88.2459 44.3608 88.2707 45.0514 88.1996 45.7109Z" fill="#E40000"/>
<path d="M54.9503 40.7623C56.1672 38.8734 57.3441 37.037 58.4069 35.2471C60.4341 31.8377 62.3749 28.5769 64.2388 25.4586C64.8149 24.542 65.1692 23.5665 65.3109 22.5261C65.4526 21.4887 65.5235 20.3769 65.5235 19.1786C65.5235 18.7945 65.4926 18.3517 65.4341 17.8532C65.3725 17.3546 65.2431 16.8622 65.0398 16.3822C64.8364 15.8992 64.5499 15.4254 64.1772 14.964C63.8013 14.4964 63.2961 14.1062 62.6553 13.7904C61.6509 13.3414 60.8284 13.4342 60.1907 14.0814C59.707 14.5769 59.402 15.5895 59.2788 17.1193L51.2534 14.357C51.2534 9.85761 52.2516 7.16349 54.5498 5.97127C56.2134 5.1073 58.2128 4.97724 60.4956 5.77928L51.2534 0.418945V14.2982C51.2534 12.1399 51.0562 10.2973 50.668 8.78301C50.2799 7.28424 49.6545 6.17564 48.7918 5.45722C47.9446 4.75427 46.8448 4.49725 45.5047 4.66757C44.2077 4.8348 42.6519 5.45412 40.8712 6.4977C39.2723 7.43598 37.9414 8.50437 36.8631 9.70277C35.8126 10.8702 34.9839 12.1274 34.3647 13.4745C33.7547 14.8029 33.3141 16.2181 33.0307 17.7324C32.9567 18.1288 32.8951 18.5283 32.8397 18.9339C32.6394 17.0047 32.088 15.5988 31.1915 14.7317C30.0824 13.6603 28.4126 13.7935 26.2715 15.0507C25.1655 15.6979 24.2567 16.4968 23.5327 17.4444C22.821 18.3703 22.2511 19.3984 21.8137 20.5256C21.3793 21.6404 21.0742 22.8171 20.8864 24.0713C20.8062 24.6008 20.7508 25.1365 20.7046 25.6754C20.495 23.7585 20.0576 22.43 19.4014 21.7023C18.4741 20.6742 17.2356 20.6278 15.7291 21.5041L11.8936 23.7307V49.3648L9.30886 25.2326L6.98905 26.5796C6.56388 31.3175 6.14489 35.9408 5.73515 40.4589C5.52257 42.7907 5.31308 45.1038 5.10667 47.4047L5.03274 48.2191L3.4677 48.4142V48.4111C3.35063 49.6188 3.05489 50.2443 2.59277 50.2815C2.41409 50.2969 2.26622 50.2257 2.15531 50.074C2.0444 49.9222 1.95506 49.7272 1.89344 49.4918C1.83182 49.2565 1.7887 49.0025 1.77021 48.7269C1.75173 48.4513 1.74247 48.2005 1.74247 47.9682V35.7705C1.74247 35.4701 1.75481 35.148 1.77946 34.8043C1.8041 34.4575 1.84723 34.1262 1.90884 33.8072C1.97045 33.4882 2.06288 33.2065 2.17995 32.9618C2.29702 32.7172 2.45106 32.4849 2.64206 32.3889C3.0364 32.1907 3.29826 32.4416 3.43689 32.903C3.52623 33.1972 3.55705 33.5843 3.56937 34.0333L5.44247 33.2591C5.44247 32.3858 5.38702 31.6085 5.2792 30.9335C5.17137 30.2615 4.97419 29.7505 4.74622 29.3511C4.52132 28.9547 4.13007 28.7411 3.79735 28.6451C3.46771 28.549 3.08261 28.6327 2.64515 28.8897C2.17379 29.1653 1.78561 29.5648 1.47445 30.0912C1.16637 30.6083 0.919915 31.2091 0.735075 31.8935C0.550226 32.5747 0.420837 33.3148 0.343819 34.1199C0.2668 34.922 0.199023 35.755 0.199023 36.619L0.168213 48.151C0.168213 50.0121 0.260633 51.4149 0.636485 52.3686C1.0185 53.341 1.62849 53.6197 2.62974 53.6197C3.55704 53.6197 4.11775 53.276 4.57062 52.1426C4.62299 52.0125 4.66921 51.8762 4.71542 51.7369C4.65996 52.3624 4.60143 52.9911 4.54597 53.6166L6.44372 53.6073C6.51457 52.6845 6.5916 51.7524 6.66862 50.811C6.7487 49.8666 6.82882 48.922 6.91504 47.9838L9.3889 47.6741L9.94345 53.5887L12.3434 53.5764L14.4383 53.567V40.6106L15.7291 40.2978L18.1629 53.5516L21.4439 53.5361L18.3632 38.5482C19.2659 37.4613 19.9128 36.1049 20.2856 34.4823C20.418 33.9063 20.5259 33.29 20.6122 32.6428V45.2742C20.6122 48.0798 21.0342 50.1824 21.8968 51.6161C22.7841 53.0901 23.8839 53.6259 26.2407 53.6259C28.5328 53.6259 29.7281 53.0344 31.0097 51.3777C31.9308 50.1824 32.544 48.5938 32.8304 46.6336C33.0984 48.4699 33.6222 49.9594 34.417 51.1052C35.5785 52.7867 37.4639 53.5392 40.1873 53.6351V53.6476H51.2596V46.8473L54.9503 40.7623ZM7.22005 44.0076C7.38028 42.0443 7.53124 40.0996 7.66985 38.1828C7.80852 36.2536 7.94403 34.3089 8.07035 32.3518L8.16584 32.3085L9.05314 43.6267L7.22005 44.0076ZM17.1955 33.9156C16.832 34.8105 16.2837 35.3741 15.5535 35.6126L14.4445 35.978V26.7994L15.5042 26.273C16.2868 25.8829 16.8598 26.016 17.211 26.6756C17.5684 27.3475 17.747 28.4468 17.747 29.9767C17.747 31.6922 17.5622 33.0083 17.1955 33.9156ZM26.1328 32.6305V37.7678L28.5143 37.1888V44.949C28.5143 45.9306 28.2894 46.7296 27.8458 47.3365C27.4083 47.9373 26.8353 48.2624 26.1328 48.3213C25.4459 48.377 24.9745 48.1479 24.7126 47.6369C24.4508 47.1291 24.2875 46.5592 24.2197 45.9306C24.1519 45.5838 24.118 45.2184 24.118 44.8282V26.0779C24.118 25.6165 24.1458 25.1179 24.2012 24.5792C24.2567 24.0403 24.3584 23.5108 24.5062 22.9968C24.6541 22.4796 24.8667 22.0089 25.1439 21.5847C25.4243 21.1573 25.7878 20.8291 26.2407 20.603C27.017 20.2129 27.5931 20.3707 27.9566 21.0892C28.274 21.7147 28.4527 22.6034 28.4989 23.7492V23.7461L31.5612 22.7738L32.6148 22.4393V30.5433L26.1328 32.6305ZM38.3912 45.8997C37.9322 45.0234 37.7042 44.0107 37.7042 42.8526V20.3677C37.7042 19.8103 37.7442 19.1817 37.8305 18.4787C37.9137 17.7758 38.0677 17.1038 38.2895 16.4565C38.5113 15.8094 38.8287 15.1994 39.2477 14.6234C39.6697 14.0412 40.2212 13.5767 40.9051 13.233C42.199 12.5827 43.1017 12.657 43.5854 13.4745C44.0752 14.3044 44.3217 15.3975 44.3217 16.7446V41.4219C44.3217 42.9083 44.0444 44.2089 43.4991 45.3051C43.0308 46.2403 42.3037 46.807 41.3302 47.0083L40.3105 47.0826C39.4171 47.0392 38.7794 46.6429 38.3912 45.8997Z" fill="#151515"/>
</g>
<defs>
<clipPath id="clip0_469_28150">
<rect width="92" height="54" fill="white"/>
</clipPath>
</defs>
</svg>
