<svg width="62" height="61" viewBox="0 0 62 61" fill="none" xmlns="http://www.w3.org/2000/svg">
<path d="M19.5464 1.0459L9.22168 11.3694H19.5464V1.0459Z" fill="#E40000"/>
<path d="M23.1853 21.6693V37.5507C23.1853 41.5824 26.4653 44.8624 30.497 44.8624H51.1202V55.6386C51.1202 56.6251 50.3196 57.4257 49.3331 57.4257H18.7187L22.9518 52.205C24.1766 50.6943 24.428 48.5831 23.5904 46.8282C22.8517 45.2806 21.366 44.2154 19.6921 43.9867V37.1349C19.6921 34.3375 17.4165 32.0631 14.6203 32.0631H8.1748V14.9438H21.3327C22.3192 14.9438 23.1198 14.1432 23.1198 13.1567V0H49.3331C50.3196 0 51.1202 0.800625 51.1202 1.78711V14.3576H30.497C26.4653 14.3576 23.1853 17.6376 23.1853 21.6693Z" fill="#E40000"/>
<path d="M36.3268 27.5344C36.3268 28.3458 35.6156 29.032 34.7756 29.032C34.4385 29.032 33.8571 29.0344 33.3245 29.038C33.3174 27.4749 33.3221 28.0837 33.3162 26.0356H34.7756C35.6156 26.0356 36.3268 26.7219 36.3268 27.5344Z" fill="#E40000"/>
<path d="M44.3568 26.0356H42.8509C42.8533 27.2067 42.8557 28.9152 42.8557 29.5991C42.8557 30.4128 42.8604 32.0498 42.864 33.1781C43.4299 33.1745 44.059 33.1697 44.4152 33.1638C46.2107 33.1316 47.0149 31.3564 47.0149 29.6098C47.0149 27.8823 46.3167 26.0356 44.3568 26.0356ZM44.3568 26.0356H42.8509C42.8533 27.2067 42.8557 28.9152 42.8557 29.5991C42.8557 30.4128 42.8604 32.0498 42.864 33.1781C43.4299 33.1745 44.059 33.1697 44.4152 33.1638C46.2107 33.1316 47.0149 31.3564 47.0149 29.6098C47.0149 27.8823 46.3167 26.0356 44.3568 26.0356ZM57.7613 17.9316H30.4972C28.4361 17.9316 26.7598 19.6079 26.7598 21.6691V37.5505C26.7598 39.6116 28.4361 41.288 30.4972 41.288H57.7613C59.8225 41.288 61.5 39.6116 61.5 37.5505V21.6691C61.5 19.6079 59.8225 17.9316 57.7613 17.9316ZM34.7755 31.4148C34.4372 31.4148 33.8486 31.4172 33.3125 31.4207V34.3754C33.3125 35.0331 32.7799 35.5668 32.1211 35.5668C31.4634 35.5668 30.9297 35.0331 30.9297 34.3754V24.8442C30.9297 24.1961 31.4563 23.6528 32.1211 23.6528H34.7755C36.9439 23.6528 38.7096 25.3934 38.7096 27.5344C38.7096 29.6741 36.9439 31.4148 34.7755 31.4148ZM44.4569 35.5454C43.6873 35.5585 41.7631 35.5668 41.6809 35.5668C41.0471 35.5668 40.4657 35.0879 40.4657 34.2205V24.8537C40.4657 24.8501 40.4657 24.8466 40.4657 24.8466C40.4645 24.1877 40.9983 23.6528 41.6571 23.6528H44.3568C47.3711 23.6528 49.3977 26.0463 49.3977 29.6098C49.3977 32.9993 47.3187 35.4953 44.4569 35.5454ZM55.8313 28.3278C56.4889 28.3278 57.0227 28.8616 57.0227 29.5193C57.0227 30.1769 56.4889 30.7107 55.8313 30.7107H53.4663V34.3754C53.4663 35.0331 52.9338 35.5668 52.2749 35.5668C51.6173 35.5668 51.0835 35.0331 51.0835 34.3754V24.8442C51.0835 24.1865 51.6173 23.6528 52.2749 23.6528H56.1386C56.7963 23.6528 57.33 24.1865 57.33 24.8442C57.33 25.5018 56.7963 26.0356 56.1386 26.0356H53.4663V28.3278H55.8313ZM44.3568 26.0356H42.8509C42.8533 27.2067 42.8557 28.9152 42.8557 29.5991C42.8557 30.4128 42.8604 32.0498 42.864 33.1781C43.4299 33.1745 44.059 33.1697 44.4152 33.1638C46.2107 33.1316 47.0149 31.3564 47.0149 29.6098C47.0149 27.8823 46.3167 26.0356 44.3568 26.0356Z" fill="#E40000"/>
<path d="M20.1757 49.9537L11.6685 60.4455C11.384 60.7959 10.9568 60.9995 10.5056 60.9995C10.0533 60.9995 9.62609 60.7959 9.34158 60.4455L0.834348 49.9537C0.470969 49.5055 0.397102 48.8875 0.645629 48.3665C0.894156 47.8454 1.42028 47.514 1.99728 47.514H4.89228V37.1341C4.89228 36.3075 5.56208 35.6367 6.38963 35.6367H14.6203C15.4479 35.6367 16.1177 36.3076 16.1177 37.1341V47.514H19.0127C19.5897 47.514 20.1158 47.8454 20.3643 48.3665C20.613 48.8875 20.5391 49.5055 20.1757 49.9537Z" fill="#E40000"/>
</svg>
