<svg width="110" height="110" viewBox="0 0 110 110" fill="none" xmlns="http://www.w3.org/2000/svg">
<circle cx="55" cy="55" r="55" fill="white"/>
<path fill-rule="evenodd" clip-rule="evenodd" d="M59.5019 31.0805L62.7163 33.4866C63.5954 34.1447 64.5208 34.4814 65.6172 34.5425L69.626 34.7655C72.0265 34.899 73.9762 36.5348 74.5244 38.8757L75.4403 42.785C75.6907 43.8542 76.1831 44.7069 76.9838 45.4584L79.9114 48.2062C81.6644 49.8514 82.1063 52.3578 81.0218 54.5034L79.2105 58.0867C78.7151 59.0668 78.5441 60.0365 78.6745 61.1268L79.151 65.1136C79.4363 67.5008 78.1638 69.7048 75.9539 70.6513L72.2629 72.232C71.2535 72.6643 70.4992 73.2972 69.8982 74.2162L67.7005 77.5765C66.3847 79.5886 63.9932 80.4589 61.6919 79.7635L57.8485 78.602C56.7974 78.2843 55.8127 78.2843 54.7615 78.602L50.9181 79.7635C48.6168 80.4589 46.2253 79.5886 44.9094 77.5765L42.7118 74.2162C42.1107 73.2972 41.3564 72.6643 40.3471 72.232L36.6559 70.6511C34.4459 69.7045 33.1734 67.5006 33.4587 65.1134L33.9353 61.1266C34.0656 60.0363 33.8946 59.0666 33.3993 58.0865L31.588 54.5032C30.5034 52.3577 30.9453 49.8513 32.6983 48.206L35.626 45.4582C36.4267 44.7067 36.919 43.854 37.1694 42.7848L38.0852 38.8755C38.6335 36.5347 40.5831 34.8989 42.9836 34.7653L46.9924 34.5423C48.0889 34.4813 49.0142 34.1444 49.8933 33.4864L53.1077 31.0803C55.0323 29.6399 57.5773 29.6399 59.5019 31.0805ZM54.2543 56.377L50.766 52.8887C49.8619 51.9845 48.3954 51.9845 47.4914 52.8887C46.5873 53.7928 46.5873 55.2592 47.4914 56.1633L52.6221 61.2939C53.5262 62.1979 54.9927 62.198 55.8967 61.2939C58.9892 58.2013 62.0467 55.0741 65.1249 51.9674C66.0225 51.0614 66.0197 49.5997 65.1149 48.7C64.21 47.8001 62.744 47.8026 61.8455 48.7101L54.2543 56.377ZM56.3048 37.7561C51.5431 37.7561 47.2321 39.6862 44.1116 42.8068C40.9911 45.9274 39.0609 50.2383 39.0609 54.9999C39.0609 59.7616 40.9911 64.0726 44.1116 67.1931C47.2321 70.3137 51.5431 72.2438 56.3048 72.2438C61.0664 72.2438 65.3774 70.3137 68.498 67.1931C71.6185 64.0726 73.5486 59.7616 73.5486 54.9999C73.5486 50.2383 71.6185 45.9273 68.498 42.8068C65.3774 39.6862 61.0664 37.7561 56.3048 37.7561ZM67.3051 43.9996C64.49 41.1844 60.6007 39.4431 56.3048 39.4431C52.0088 39.4431 48.1196 41.1844 45.3044 43.9996C42.4892 46.8147 40.7479 50.704 40.7479 54.9999C40.7479 59.2959 42.4892 63.1851 45.3044 66.0003C48.1196 68.8155 52.0088 70.5568 56.3048 70.5568C60.6007 70.5568 64.49 68.8155 67.3051 66.0004C70.1203 63.1853 71.8615 59.296 71.8615 55.0001C71.8616 50.704 70.1203 46.8147 67.3051 43.9996Z" fill="#E40000"/>
</svg>
