<svg width="110" height="110" viewBox="0 0 110 110" fill="none" xmlns="http://www.w3.org/2000/svg">
<circle cx="55" cy="55" r="55" fill="white"/>
<path d="M71.1834 25C66.9306 25 63.4707 28.4599 63.4707 32.7128V46.3229C63.4707 47.6043 64.5133 48.6469 65.7946 48.6469H76.5803C77.8617 48.6469 78.9043 47.6043 78.9043 46.3229V32.7128C78.9043 28.4599 75.4443 25 71.1834 25ZM71.1875 43.4904C69.7734 43.4904 68.627 42.3441 68.627 40.93C68.627 39.5159 69.7734 38.3696 71.1875 38.3696C72.6016 38.3696 73.7479 39.5159 73.7479 40.93C73.7479 42.3441 72.6016 43.4904 71.1875 43.4904ZM77.1265 33.1936H65.2485V32.7128C65.2485 29.4402 67.9109 26.7778 71.1915 26.7778C74.472 26.7778 77.1265 29.4401 77.1265 32.7128V33.1936Z" fill="#E40000"/>
<path fill-rule="evenodd" clip-rule="evenodd" d="M57.6411 62.8516C56.3107 62.8516 55.2285 63.9338 55.2285 65.264C55.2285 66.5942 56.3107 67.6766 57.6411 67.6766C58.9714 67.6766 60.0535 66.5943 60.0535 65.264C60.0535 63.9337 58.9713 62.8516 57.6411 62.8516Z" fill="#E40000"/>
<path fill-rule="evenodd" clip-rule="evenodd" d="M46.1976 56.2333C47.5279 56.2333 48.6102 55.1511 48.6102 53.8208C48.6102 52.4904 47.5279 51.4082 46.1976 51.4082C44.8673 51.4082 43.7852 52.4904 43.7852 53.8208C43.7852 55.1511 44.8674 56.2333 46.1976 56.2333Z" fill="#E40000"/>
<path fill-rule="evenodd" clip-rule="evenodd" d="M71.3506 50.426H65.7957C63.534 50.426 61.694 48.586 61.694 46.3242V40.433C58.7627 38.9307 55.4405 38.083 51.9202 38.083C40.0686 38.083 30.4609 47.6907 30.4609 59.5422C30.4609 71.3938 40.0686 81.0014 51.9202 81.0014C63.7717 81.0014 73.3794 71.3938 73.3794 59.5422C73.3794 56.2823 72.6511 53.193 71.3507 50.426H71.3506ZM46.1989 49.6308C48.5095 49.6308 50.3893 51.5106 50.3893 53.8211C50.3893 56.1317 48.5095 58.0114 46.1989 58.0114C43.8884 58.0114 42.0087 56.1317 42.0087 53.8211C42.0087 51.5106 43.8885 49.6308 46.1989 49.6308ZM57.6414 69.4538C55.3308 69.4538 53.451 67.574 53.451 65.2634C53.451 62.9529 55.3308 61.0732 57.6414 61.0732C59.9519 61.0732 61.8316 62.9529 61.8316 65.2634C61.8316 67.574 59.9518 69.4538 57.6414 69.4538ZM61.5713 51.1482L43.5262 69.1934C43.3526 69.367 43.1252 69.4538 42.8976 69.4538C42.67 69.4538 42.4426 69.367 42.269 69.1934C41.9219 68.8463 41.9219 68.2836 42.269 67.9364L60.3141 49.8912C60.6614 49.5441 61.224 49.5441 61.5713 49.8912C61.9184 50.2383 61.9184 50.8011 61.5713 51.1482Z" fill="#E40000"/>
</svg>
