<svg width="110" height="110" viewBox="0 0 110 110" fill="none" xmlns="http://www.w3.org/2000/svg">
<circle cx="55" cy="55" r="55" fill="white"/>
<path d="M76.0568 31.004C67.0774 30.843 56.8368 35.5369 50.3547 42.8182C44.1601 42.9351 38.1285 45.4746 33.6876 49.9155C33.4289 50.1704 33.3369 50.5518 33.4499 50.8968C33.5649 51.2437 33.8639 51.4948 34.2243 51.5466L41.611 52.6045L40.6987 53.6261C40.3594 54.0056 40.3767 54.5825 40.737 54.9428L53.0552 67.2611C53.2412 67.447 53.4865 67.5409 53.7337 67.5409C53.9618 67.5409 54.1899 67.4604 54.372 67.2975L55.3935 66.3852L56.4515 73.7719C56.5033 74.1322 56.7869 74.3967 57.13 74.5117C57.2182 74.5405 57.3102 74.5539 57.4041 74.5539C57.6763 74.5539 57.9542 74.435 58.1458 74.2453C62.5254 69.8658 65.0649 63.8341 65.1818 57.6395C72.4708 51.1441 77.203 40.9073 76.9941 31.9393C76.9807 31.4295 76.5686 31.0174 76.0568 31.004ZM67.225 47.5484C66.2916 48.4818 65.0649 48.9495 63.8363 48.9495C62.6078 48.9495 61.3811 48.4818 60.4477 47.5484C58.5809 45.6797 58.5809 42.6399 60.4477 40.7712C62.3164 38.9025 65.3562 38.9025 67.225 40.7712C69.0937 42.6399 69.0937 45.6816 67.225 47.5484Z" fill="#E40000"/>
<path d="M36.221 63.3994C34.1702 65.4502 31.3547 74.7152 31.0404 75.7636C30.9388 76.101 31.0327 76.4671 31.2799 76.7162C31.4639 76.9002 31.7073 76.998 31.9584 76.998C32.0504 76.998 32.1424 76.9845 32.2344 76.9577C33.2828 76.6434 42.5479 73.8278 44.5987 71.777C46.9082 69.4675 46.9082 65.709 44.5987 63.3994C42.2872 61.0899 38.5306 61.0918 36.221 63.3994Z" fill="#E40000"/>
</svg>
