<svg width="110" height="110" viewBox="0 0 110 110" fill="none" xmlns="http://www.w3.org/2000/svg">
<circle cx="55" cy="55" r="55" fill="white"/>
<path d="M36.9007 37.2799C36.849 37.1765 37.2541 37.1765 34.0562 37.1765C33.2104 37.1765 32.3992 37.5125 31.8011 38.1106C31.203 38.7087 30.8669 39.5199 30.8669 40.3658V43.2103C30.8669 43.2103 31.1255 43.2103 31.2979 43.2103C32.0624 43.2128 32.8194 43.0586 33.522 42.7573C34.2246 42.4559 34.858 42.0136 35.383 41.4579C35.9081 40.9022 36.3136 40.2447 36.5746 39.5261C36.8357 38.8076 36.9466 38.0431 36.9007 37.2799Z" fill="#E40000"/>
<path d="M34.0562 64.7596C37.2455 64.7596 36.849 64.7596 36.8835 64.6561C36.9293 63.8945 36.8188 63.1314 36.5589 62.414C36.2989 61.6966 35.8949 61.0399 35.3717 60.4845C34.8485 59.929 34.2172 59.4864 33.5166 59.184C32.816 58.8815 32.061 58.7256 31.2979 58.7258C31.1255 58.7258 30.8669 58.7258 30.8669 58.7258V61.5703C30.8669 62.4162 31.203 63.2274 31.8011 63.8255C32.3992 64.4236 33.2104 64.7596 34.0562 64.7596Z" fill="#E40000"/>
<path d="M47.6936 48.3825C47.1184 50.0173 47.1073 51.7977 47.6619 53.4396C48.2165 55.0815 49.3049 56.4905 50.7536 57.4417L61.485 46.7102C60.6913 45.5044 59.577 44.544 58.2672 43.937C56.9575 43.33 55.5044 43.1004 54.0713 43.2742C52.6382 43.4479 51.2821 44.0181 50.1554 44.9206C49.0287 45.823 48.1761 47.0219 47.6936 48.3825Z" fill="#E40000"/>
<path d="M38.6246 64.7595H43.4602L49.5371 58.7257C48.1213 57.7306 47.0081 56.3635 46.3205 54.7755C45.633 53.1874 45.3978 51.4402 45.641 49.7268C45.8913 47.8407 46.7033 46.0735 47.9714 44.655C49.2395 43.2365 50.9051 42.2323 52.7515 41.7731C54.5979 41.3138 56.5398 41.4206 58.3246 42.0797C60.1095 42.7388 61.6548 43.9197 62.7596 45.4687L71.0172 37.1766C34.944 37.1766 38.6246 36.9956 38.6246 37.6076C38.6246 42.1329 34.5475 45.3653 30.8669 44.9084V57.0018C35.1078 56.5277 39.0728 60.6996 38.6246 64.7595Z" fill="#E40000"/>
<path d="M73.103 64.6559C73.103 64.8024 72.7323 64.7593 75.9302 64.7593C76.3505 64.7616 76.7671 64.6808 77.156 64.5215C77.5449 64.3623 77.8985 64.1277 78.1965 63.8313C78.4945 63.535 78.731 63.1826 78.8923 62.7945C79.0537 62.4065 79.1367 61.9904 79.1367 61.5701V58.7256C79.1367 58.7256 78.8781 58.7256 78.7057 58.7256C77.9416 58.7243 77.1852 58.8793 76.4832 59.1811C75.7812 59.483 75.1483 59.9252 74.6235 60.4807C74.0987 61.0361 73.6931 61.6931 73.4316 62.4111C73.1701 63.1291 73.0583 63.8931 73.103 64.6559Z" fill="#E40000"/>
<path d="M34.0565 69.9317H38.2628L41.7107 66.4838C33.8927 66.4838 32.6859 66.8631 30.8672 65.3115V66.7424C30.8672 67.5882 31.2032 68.3994 31.8013 68.9975C32.3994 69.5956 33.2106 69.9317 34.0565 69.9317Z" fill="#E40000"/>
<path d="M33.2117 74.9819L36.5389 71.6547C34.1599 71.6547 32.5394 71.9047 30.8672 70.4824V71.9133C30.8658 72.6115 31.0948 73.2907 31.5187 73.8455C31.9426 74.4003 32.5377 74.7997 33.2117 74.9819Z" fill="#E40000"/>
<path d="M78.525 32.2548L30.255 80.5248C30.1334 80.6453 30.0505 80.7994 30.0168 80.9672C29.9832 81.1351 30.0002 81.3092 30.0659 81.4673C30.1315 81.6254 30.2428 81.7604 30.3855 81.855C30.5281 81.9497 30.6958 81.9997 30.867 81.9987C31.3755 81.9987 30.9618 82.2659 38.1247 75.103H75.9477C76.3665 75.103 76.7812 75.0205 77.1682 74.8602C77.5551 74.7 77.9067 74.465 78.2029 74.1689C78.499 73.8727 78.7339 73.5211 78.8942 73.1342C79.0545 72.7473 79.137 72.3326 79.137 71.9137V70.4829C78.2475 71.2412 77.1165 71.6569 75.9477 71.6551H41.5726L43.2965 69.9312H75.9477C76.7935 69.9312 77.6047 69.5952 78.2029 68.9971C78.801 68.399 79.137 67.5878 79.137 66.7419V65.3111C78.2475 66.0694 77.1165 66.4851 75.9477 66.4834H46.7444L48.4683 64.7594H71.3793C70.9052 60.7082 74.8271 56.5277 79.137 57.0018V44.9343C77.7328 45.0218 76.3334 44.6993 75.1092 44.0061C73.8849 43.3129 72.8885 42.2787 72.2413 41.0296L73.5342 39.7366C73.9795 40.8147 74.7506 41.7267 75.7398 42.3449C76.7289 42.9631 77.8866 43.2566 79.0508 43.1845C79.1973 43.1845 79.1542 43.5551 79.1542 40.3572C79.1544 39.5255 78.8288 38.7267 78.2471 38.1322C77.6655 37.5377 76.8741 37.1946 76.0425 37.1766L79.749 33.4701C79.8288 33.3898 79.892 33.2945 79.9349 33.1897C79.9779 33.0849 79.9998 32.9727 79.9994 32.8594C79.999 32.7461 79.9763 32.6341 79.9326 32.5296C79.8889 32.4251 79.825 32.3303 79.7447 32.2505C79.6643 32.1707 79.569 32.1075 79.4642 32.0645C79.3594 32.0215 79.2472 31.9996 79.1339 32C79.0207 32.0004 78.9086 32.0231 78.8041 32.0668C78.6996 32.1105 78.6048 32.1744 78.525 32.2548ZM52.9936 60.2341L54.5193 58.7257C55.5779 58.7917 56.6388 58.6399 57.6364 58.2797C58.6341 57.9195 59.5473 57.3585 60.3196 56.6315C61.0919 55.9044 61.7068 55.0267 62.1265 54.0526C62.5462 53.0785 62.7617 52.0287 62.7597 50.968C62.7597 50.3043 62.458 50.7698 64.2681 48.9596C64.6041 50.5102 64.5456 52.1204 64.098 53.6425C63.6504 55.1647 62.8279 56.5502 61.706 57.6721C60.5841 58.794 59.1987 59.6164 57.6765 60.064C56.1544 60.5116 54.5442 60.5701 52.9936 60.2341Z" fill="#E40000"/>
</svg>
