<svg width="110" height="110" viewBox="0 0 110 110" fill="none" xmlns="http://www.w3.org/2000/svg">
<circle cx="55" cy="55" r="55" fill="white"/>
<path d="M80.954 73.904L70.8753 63.8253C73.3718 60.3217 74.8575 56.0502 74.8575 51.4288C74.8575 39.6126 65.2449 30 53.4288 30C41.6126 30 32 39.6126 32 51.4288C32 63.2449 41.6126 72.8575 53.4288 72.8575C58.0502 72.8575 62.3217 71.3736 65.8253 68.8753L75.904 78.954C77.2968 80.3487 79.5611 80.3487 80.954 78.954C82.3487 77.5594 82.3487 75.2986 80.954 73.904ZM35.5715 51.4288C35.5715 41.5822 43.5822 33.5715 53.4288 33.5715C63.2753 33.5715 71.2861 41.5822 71.2861 51.4288C71.2861 61.2753 63.2753 69.2861 53.4288 69.2861C43.5822 69.2861 35.5715 61.2753 35.5715 51.4288Z" fill="#E40000"/>
<path d="M51.6427 63.3204L40.2247 58.4275C39.5676 58.1453 39.1426 57.4989 39.1426 56.7864V45.4023L51.6427 50.8167V63.3204Z" fill="#E40000"/>
<path d="M40.998 42.3123L52.7249 37.2872C53.1749 37.0944 53.6821 37.0944 54.1321 37.2872L65.9251 42.3408L53.4321 47.698L40.998 42.3123Z" fill="#E40000"/>
<path d="M67.715 45.457V56.7857C67.715 57.5 67.29 58.1464 66.6328 58.4268L55.2148 63.3197V50.8196L67.715 45.457Z" fill="#E40000"/>
</svg>
