<svg width="110" height="110" viewBox="0 0 110 110" fill="none" xmlns="http://www.w3.org/2000/svg">
<circle cx="55" cy="55" r="55" fill="white"/>
<path d="M55.2912 49.8285C61.0337 49.8285 65.7054 45.1568 65.7054 39.4142C65.7054 33.6717 61.0337 29 55.2912 29C49.5487 29 44.877 33.6717 44.877 39.4142C44.877 45.1568 49.5487 49.8285 55.2912 49.8285Z" fill="#E40000"/>
<path d="M69.2653 54.876C69.2609 54.8746 69.2523 54.8714 69.2479 54.8703C67.8919 54.5391 63.7396 53.9582 63.7396 53.9582C63.2708 53.8139 62.7699 54.0622 62.6013 54.5247L56.3511 71.6737C55.9906 72.6629 54.5914 72.6629 54.2309 71.6737L47.9807 54.5247C47.8446 54.1512 47.492 53.917 47.1142 53.917C47.0247 53.917 42.7552 54.5156 41.3339 54.8691C37.4499 55.8348 35 59.6542 35 63.6345V77.9036C35 80.042 36.7336 81.7756 38.8719 81.7756H71.7065C73.8448 81.7756 75.5784 80.042 75.5784 77.9036V63.5871C75.5782 59.624 73.0324 56.1069 69.2653 54.876Z" fill="#E40000"/>
<path d="M57.6482 53.6312C57.3987 53.3593 57.0341 53.2227 56.6652 53.2227H53.9136C53.5447 53.2227 53.1799 53.3595 52.9306 53.6312C52.5445 54.052 52.4883 54.6598 52.7625 55.1348L54.2334 57.3522L53.5449 63.161L54.9009 66.7682C55.0331 67.1311 55.5461 67.1311 55.6783 66.7682L57.0343 63.161L56.3457 57.3522L57.8166 55.1348C58.0905 54.6598 58.0343 54.052 57.6482 53.6312Z" fill="#E40000"/>
</svg>
