<svg width="175" height="174" viewBox="0 0 175 174" fill="none" xmlns="http://www.w3.org/2000/svg">
<circle cx="87.3915" cy="86.7623" r="82.5" transform="rotate(3 87.3915 86.7623)" fill="white"/>
<path d="M123.37 77.5289L120.144 60.9788C119.749 58.9455 118.019 57.4437 115.948 57.3352L60.8375 54.447C58.7673 54.3385 56.8894 55.6511 56.2791 57.6317L51.3412 73.754C51.2868 73.9275 51.2546 74.1113 51.2449 74.2962C50.9192 80.5113 55.4574 85.8236 61.3659 86.1332C64.7982 86.3131 67.9502 84.7642 70.0512 82.215C71.8741 84.9699 74.847 86.8397 78.2793 87.0196C81.7117 87.1995 84.8637 85.6506 86.9647 83.1014C88.7876 85.8563 91.756 87.7259 95.1928 87.906C98.6296 88.0861 101.777 86.537 103.878 83.9878C105.701 86.7427 108.669 88.6123 112.106 88.7924C118.015 89.1021 123.083 84.2933 123.409 78.0781C123.419 77.8932 123.406 77.7071 123.37 77.5289Z" fill="black"/>
<path d="M111.869 93.3032C108.798 93.1423 105.929 92.0512 103.552 90.208C98.4376 93.3817 91.3926 93.0125 86.6382 89.3216C81.5241 92.4953 74.4791 92.1261 69.7248 88.4352C67.1678 90.0198 64.2005 90.805 61.129 90.644C58.9145 90.528 56.8534 89.8999 55.0009 88.9163L53.7456 112.87C53.6151 115.36 55.5298 117.486 58.0194 117.617L76.0605 118.562L77.006 100.521L95.047 101.467L94.1015 119.508L112.143 120.453C114.632 120.584 116.759 118.669 116.889 116.18L118.145 92.2256C116.199 93.0101 114.084 93.4193 111.869 93.3032Z" fill="black"/>
</svg>
